<svg xmlns="http://www.w3.org/2000/svg" width="64" height="64" viewBox="0 0 64 64">
  <g fill="none" fill-rule="evenodd">
    <path fill="#FACB1B" d="M8.4264,14.6226 C7.5894,13.0026 7.0264,11.3636 6.6544,9.9996 L12.0004,9.9996 L12.0004,12.1996 C12.0004,15.1936 12.6724,18.0286 13.8614,20.5726 C11.6584,19.3676 9.8584,17.3936 8.4264,14.6226 M52.0004,12.1996 L52.0004,9.9996 L57.3454,9.9996 C56.9734,11.3636 56.4114,13.0026 55.5744,14.6226 C54.1414,17.3936 52.3424,19.3676 50.1394,20.5726 C51.3274,18.0286 52.0004,15.1936 52.0004,12.1996 M63.9864,7.2886 C64.0674,6.4466 63.7894,5.6096 63.2214,4.9836 C62.6524,4.3566 61.8454,3.9996 61.0004,3.9996 L52.0004,3.9996 L52.0004,-0.0004 L32.0004,-0.0004 L12.0004,-0.0004 L12.0004,3.9996 L3.0004,3.9996 C2.1544,3.9996 1.3474,4.3566 0.7794,4.9836 C0.2104,5.6096 -0.0676,6.4466 0.0134,7.2886 C1.5294,22.9606 11.5124,27.3176 26.7414,31.3396 C30.2354,38.4426 27.2034,46.5536 21.5604,47.8276 C20.6474,48.0336 20.0004,48.8416 20.0004,49.7766 L20.0004,51.9996 L32.0004,51.9996 L44.0004,51.9996 L44.0004,49.7766 C44.0004,48.8416 43.3534,48.0336 42.4404,47.8276 C36.7974,46.5536 33.7644,38.4426 37.2594,31.3396 C52.4884,27.3176 62.4704,22.9606 63.9864,7.2886"/>
    <path fill="#84462D" d="M52.0002,62 C52.0002,63.105 51.1042,64 50.0002,64 L14.0002,64 C12.8952,64 12.0002,63.105 12.0002,62 L12.0002,54 C12.0002,52.895 12.8952,52 14.0002,52 L50.0002,52 C51.1042,52 52.0002,52.895 52.0002,54 L52.0002,62 Z"/>
    <polygon fill="#F0F1F1" points="41 60 23 60 23 56 41 56"/>
    <path fill="#9C6144" d="M23.0002,60 L23.0002,56 L32.0002,56 L32.0002,52 L14.0002,52 C12.8962,52 12.0002,52.896 12.0002,54 L12.0002,62 C12.0002,63.104 12.8962,64 14.0002,64 L32.0002,64 L32.0002,60 L23.0002,60 Z"/>
    <path fill="#FBE158" d="M13.861,20.5723 C11.658,19.3673 9.859,17.3933 8.426,14.6223 C7.589,13.0033 7.026,11.3633 6.654,10.0003 L12,10.0003 L12,12.2003 C12,15.1933 12.672,18.0283 13.861,20.5723 M26.741,31.3393 C30.235,38.4423 27.203,46.5533 21.56,47.8283 C20.647,48.0343 20,48.8413 20,49.7773 L20,52.0003 L32,52.0003 L32,0.0003 L12,0.0003 L12,4.0003 L3,4.0003 C2.154,4.0003 1.348,4.3573 0.779,4.9833 C0.211,5.6093 -0.067,6.4473 0.014,7.2883 C1.529,22.9603 11.512,27.3183 26.741,31.3393"/>
    <path fill="#FFF" d="M56.915 40.1115C56.964 40.1045 57 40.0625 57 40.0125L57 39.9875C57 39.9375 56.964 39.8955 56.915 39.8885 54.13 39.4705 52.53 37.8695 52.112 35.0855 52.104 35.0365 52.062 35.0005 52.013 35.0005L51.988 35.0005C51.938 35.0005 51.896 35.0365 51.889 35.0855 51.471 37.8695 49.87 39.4705 47.085 39.8885 47.036 39.8955 47 39.9375 47 39.9875L47 40.0125C47 40.0625 47.036 40.1045 47.085 40.1115 49.87 40.5295 51.471 42.1305 51.889 44.9155 51.896 44.9645 51.938 45.0005 51.988 45.0005L52.024 45.0005C52.067 45.0005 52.104 44.9685 52.11 44.9255 52.525 42.1345 54.127 40.5295 56.915 40.1115M16.8637 37.1783C16.9417 37.1663 16.9997 37.0993 16.9997 37.0203L16.9997 36.9793C16.9997 36.9003 16.9417 36.8333 16.8637 36.8213 12.4077 36.1533 9.8467 33.5913 9.1787 29.1363 9.1667 29.0573 9.0997 29.0003 9.0197 29.0003L8.9797 29.0003C8.9007 29.0003 8.8337 29.0583 8.8217 29.1363 8.1527 33.5913 5.5917 36.1533 1.1357 36.8213 1.0577 36.8333.9997 36.9003.9997 36.9803L.9997 37.0203C.9997 37.0993 1.0577 37.1663 1.1367 37.1783 5.5917 37.8473 8.1527 40.4093 8.8217 44.8643 8.8337 44.9423 8.9007 45.0003 8.9797 45.0003L9.0377 45.0003C9.1067 45.0003 9.1657 44.9493 9.1757 44.8813 9.8407 40.4153 12.4027 37.8473 16.8637 37.1783"/>
  </g>
</svg>
